<?xml version="1.0" encoding="UTF-8" standalone="no"?>
<svg
   xmlns:dc="http://purl.org/dc/elements/1.1/"
   xmlns:cc="http://creativecommons.org/ns#"
   xmlns:rdf="http://www.w3.org/1999/02/22-rdf-syntax-ns#"
   xmlns:svg="http://www.w3.org/2000/svg"
   xmlns="http://www.w3.org/2000/svg"
   xmlns:sodipodi="http://sodipodi.sourceforge.net/DTD/sodipodi-0.dtd"
   xmlns:inkscape="http://www.inkscape.org/namespaces/inkscape"
   version="1.1"
   width="600mm"
   height="400mm"
   viewBox="0 0 2125.9859 1417.324"
   id="svg4509"
   sodipodi:docname="printercard.svg"
   inkscape:version="0.92.1 r15371">
  <metadata
     id="metadata4515">
    <rdf:RDF>
      <cc:Work
         rdf:about="">
        <dc:format>image/svg+xml</dc:format>
        <dc:type
           rdf:resource="http://purl.org/dc/dcmitype/StillImage" />
        <dc:title></dc:title>
      </cc:Work>
    </rdf:RDF>
  </metadata>
  <defs
     id="defs4513" />
  <sodipodi:namedview
     pagecolor="#ffffff"
     bordercolor="#666666"
     borderopacity="1"
     objecttolerance="10"
     gridtolerance="10"
     guidetolerance="10"
     inkscape:pageopacity="0"
     inkscape:pageshadow="2"
     inkscape:window-width="1920"
     inkscape:window-height="1001"
     id="namedview4511"
     showgrid="false"
     inkscape:document-units="mm"
     inkscape:zoom="0.84537803"
     inkscape:cx="331.39001"
     inkscape:cy="351.90908"
     inkscape:window-x="-9"
     inkscape:window-y="-9"
     inkscape:window-maximized="1"
     inkscape:current-layer="svg4509" />
  <!-- Front-->
  <g
     transform="translate(22.500018,810.17784)"
     id="g4487"
     style="fill:none;stroke:#fd0000;stroke-opacity:1;stroke-width:0.90000071;stroke-miterlimit:4;stroke-dasharray:none">
    <polygon
       style="fill:none;stroke:#fd0000;stroke-width:0.90000071;stroke-opacity:1;stroke-miterlimit:4;stroke-dasharray:none"
       points="63.77958,0 85.03944,0 85.03944,10.62993 106.2993,10.62993 106.2993,0 127.55916,0 127.55916,10.62993 148.81902,10.62993 148.81902,0 170.07888,0 170.07888,10.62993 191.33874,10.62993 191.33874,0 212.5986,0 212.5986,10.62993 233.85846,10.62993 233.85846,0 255.11832,0 255.11832,10.62993 287.00811,10.62993 287.00811,0 318.8979,0 318.8979,35.4331 308.26797,35.4331 308.26797,70.8662 318.8979,70.8662 318.8979,92.12606 308.26797,92.12606 308.26797,113.38592 318.8979,113.38592 318.8979,134.64578 308.26797,134.64578 308.26797,155.90564 318.8979,155.90564 318.8979,177.1655 308.26797,177.1655 308.26797,212.5986 318.8979,212.5986 318.8979,248.0317 287.00811,248.0317 287.00811,237.40177 255.11832,237.40177 255.11832,248.0317 233.85846,248.0317 233.85846,237.40177 212.5986,237.40177 212.5986,248.0317 191.33874,248.0317 191.33874,237.40177 170.07888,237.40177 170.07888,248.0317 148.81902,248.0317 148.81902,237.40177 127.55916,237.40177 127.55916,248.0317 106.2993,248.0317 106.2993,237.40177 85.03944,237.40177 85.03944,248.0317 63.77958,248.0317 63.77958,237.40177 31.88979,237.40177 31.88979,248.0317 0,248.0317 0,212.5986 10.62993,212.5986 10.62993,177.1655 0,177.1655 0,155.90564 10.62993,155.90564 10.62993,134.64578 0,134.64578 0,113.38592 10.62993,113.38592 10.62993,92.12606 0,92.12606 0,70.8662 10.62993,70.8662 10.62993,35.4331 0,35.4331 0,0 31.88979,0 31.88979,10.62993 63.77958,10.62993 "
       id="polygon4485" />
  </g>
  <!-- Back-->
  <g
     transform="translate(341.39792,810.17784)"
     id="g4491"
     style="fill:none;stroke:#fd0000;stroke-opacity:1;stroke-width:0.90000071;stroke-miterlimit:4;stroke-dasharray:none">
    <polygon
       style="fill:none;stroke:#fd0000;stroke-width:0.90000071;stroke-opacity:1;stroke-miterlimit:4;stroke-dasharray:none"
       points="63.77958,0 85.03944,0 85.03944,10.62993 106.2993,10.62993 106.2993,0 127.55916,0 127.55916,10.62993 148.81902,10.62993 148.81902,0 170.07888,0 170.07888,10.62993 191.33874,10.62993 191.33874,0 212.5986,0 212.5986,10.62993 233.85846,10.62993 233.85846,0 255.11832,0 255.11832,10.62993 287.00811,10.62993 287.00811,0 318.8979,0 318.8979,35.4331 308.26797,35.4331 308.26797,70.8662 318.8979,70.8662 318.8979,92.12606 308.26797,92.12606 308.26797,113.38592 318.8979,113.38592 318.8979,134.64578 308.26797,134.64578 308.26797,155.90564 318.8979,155.90564 318.8979,177.1655 308.26797,177.1655 308.26797,212.5986 318.8979,212.5986 318.8979,248.0317 287.00811,248.0317 287.00811,237.40177 255.11832,237.40177 255.11832,248.0317 233.85846,248.0317 233.85846,237.40177 212.5986,237.40177 212.5986,248.0317 191.33874,248.0317 191.33874,237.40177 170.07888,237.40177 170.07888,248.0317 148.81902,248.0317 148.81902,237.40177 127.55916,237.40177 127.55916,248.0317 106.2993,248.0317 106.2993,237.40177 85.03944,237.40177 85.03944,248.0317 63.77958,248.0317 63.77958,237.40177 31.88979,237.40177 31.88979,248.0317 0,248.0317 0,212.5986 10.62993,212.5986 10.62993,177.1655 0,177.1655 0,155.90564 10.62993,155.90564 10.62993,134.64578 0,134.64578 0,113.38592 10.62993,113.38592 10.62993,92.12606 0,92.12606 0,70.8662 10.62993,70.8662 10.62993,35.4331 0,35.4331 0,0 31.88979,0 31.88979,10.62993 63.77958,10.62993 "
       id="polygon4489" />
  </g>
  <!-- Left-->
  <g
     transform="translate(660.29582,810.17784)"
     id="g4495"
     style="fill:none;stroke:#fd0000;stroke-opacity:1;stroke-width:0.90000071;stroke-miterlimit:4;stroke-dasharray:none">
    <polygon
       style="fill:none;stroke:#fd0000;stroke-width:0.90000071;stroke-opacity:1;stroke-miterlimit:4;stroke-dasharray:none"
       points="72.637855,0 93.897715,0 93.897715,10.62993 115.15758,10.62993 115.15758,0 136.41744,0 136.41744,10.62993 157.6773,10.62993 157.6773,0 178.93716,0 178.93716,10.62993 200.19701,10.62993 200.19701,0 221.45687,0 221.45687,10.62993 242.71673,10.62993 242.71673,0 263.97659,0 263.97659,10.62993 300.29552,10.62993 300.29552,0 325.98452,0 325.98452,35.4331 336.61445,35.4331 336.61445,70.8662 325.98452,70.8662 325.98452,92.12606 336.61445,92.12606 336.61445,113.38592 325.98452,113.38592 325.98452,134.64578 336.61445,134.64578 336.61445,155.90564 325.98452,155.90564 325.98452,177.1655 336.61445,177.1655 336.61445,212.5986 325.98452,212.5986 325.98452,248.0317 300.29552,248.0317 300.29552,237.40177 263.97659,237.40177 263.97659,248.0317 242.71673,248.0317 242.71673,237.40177 221.45687,237.40177 221.45687,248.0317 200.19701,248.0317 200.19701,237.40177 178.93716,237.40177 178.93716,248.0317 157.6773,248.0317 157.6773,237.40177 136.41744,237.40177 136.41744,248.0317 115.15758,248.0317 115.15758,237.40177 93.897715,237.40177 93.897715,248.0317 72.637855,248.0317 72.637855,237.40177 36.318928,237.40177 36.318928,248.0317 10.62993,248.0317 10.62993,212.5986 0,212.5986 0,177.1655 10.62993,177.1655 10.62993,155.90564 0,155.90564 0,134.64578 10.62993,134.64578 10.62993,113.38592 0,113.38592 0,92.12606 10.62993,92.12606 10.62993,70.8662 0,70.8662 0,35.4331 10.62993,35.4331 10.62993,0 36.318928,0 36.318928,10.62993 72.637855,10.62993 "
       id="polygon4493" />
  </g>
  <!-- Right-->
  <g
     transform="translate(660.29582,1058.2095)"
     id="g4499"
     style="fill:none;stroke:#fd0000;stroke-opacity:1;stroke-width:0.90000071;stroke-miterlimit:4;stroke-dasharray:none">
    <polygon
       style="fill:none;stroke:#fd0000;stroke-width:0.90000071;stroke-opacity:1;stroke-miterlimit:4;stroke-dasharray:none"
       points="72.637855,0 93.897715,0 93.897715,10.62993 115.15758,10.62993 115.15758,0 136.41744,0 136.41744,10.62993 157.6773,10.62993 157.6773,0 178.93716,0 178.93716,10.62993 200.19701,10.62993 200.19701,0 221.45687,0 221.45687,10.62993 242.71673,10.62993 242.71673,0 263.97659,0 263.97659,10.62993 300.29552,10.62993 300.29552,0 325.98452,0 325.98452,35.4331 336.61445,35.4331 336.61445,70.8662 325.98452,70.8662 325.98452,92.12606 336.61445,92.12606 336.61445,113.38592 325.98452,113.38592 325.98452,134.64578 336.61445,134.64578 336.61445,155.90564 325.98452,155.90564 325.98452,177.1655 336.61445,177.1655 336.61445,212.5986 325.98452,212.5986 325.98452,248.0317 300.29552,248.0317 300.29552,237.40177 263.97659,237.40177 263.97659,248.0317 242.71673,248.0317 242.71673,237.40177 221.45687,237.40177 221.45687,248.0317 200.19701,248.0317 200.19701,237.40177 178.93716,237.40177 178.93716,248.0317 157.6773,248.0317 157.6773,237.40177 136.41744,237.40177 136.41744,248.0317 115.15758,248.0317 115.15758,237.40177 93.897715,237.40177 93.897715,248.0317 72.637855,248.0317 72.637855,237.40177 36.318928,237.40177 36.318928,248.0317 10.62993,248.0317 10.62993,212.5986 0,212.5986 0,177.1655 10.62993,177.1655 10.62993,155.90564 0,155.90564 0,134.64578 10.62993,134.64578 10.62993,113.38592 0,113.38592 0,92.12606 10.62993,92.12606 10.62993,70.8662 0,70.8662 0,35.4331 10.62993,35.4331 10.62993,0 36.318928,0 36.318928,10.62993 72.637855,10.62993 "
       id="polygon4497" />
  </g>
  <!-- Top-->
  <g
     transform="translate(22.500018,1058.2095)"
     id="g4503"
     style="fill:none;stroke:#fd0000;stroke-opacity:1;stroke-width:0.90000071;stroke-miterlimit:4;stroke-dasharray:none">
    <polygon
       style="fill:none;stroke:#fd0000;stroke-width:0.90000071;stroke-opacity:1;stroke-miterlimit:4;stroke-dasharray:none"
       points="63.77958,10.62993 85.03944,10.62993 85.03944,0 106.2993,0 106.2993,10.62993 127.55916,10.62993 127.55916,0 148.81902,0 148.81902,10.62993 170.07888,10.62993 170.07888,0 191.33874,0 191.33874,10.62993 212.5986,10.62993 212.5986,0 233.85846,0 233.85846,10.62993 255.11832,10.62993 255.11832,0 287.00811,0 287.00811,10.62993 308.26797,10.62993 308.26797,36.318928 318.8979,36.318928 318.8979,72.637855 308.26797,72.637855 308.26797,93.897715 318.8979,93.897715 318.8979,115.15758 308.26797,115.15758 308.26797,136.41744 318.8979,136.41744 318.8979,157.6773 308.26797,157.6773 308.26797,178.93716 318.8979,178.93716 318.8979,200.19701 308.26797,200.19701 308.26797,221.45687 318.8979,221.45687 318.8979,242.71673 308.26797,242.71673 308.26797,263.97659 318.8979,263.97659 318.8979,300.29552 308.26797,300.29552 308.26797,325.98452 287.00811,325.98452 287.00811,336.61445 255.11832,336.61445 255.11832,325.98452 233.85846,325.98452 233.85846,336.61445 212.5986,336.61445 212.5986,325.98452 191.33874,325.98452 191.33874,336.61445 170.07888,336.61445 170.07888,325.98452 148.81902,325.98452 148.81902,336.61445 127.55916,336.61445 127.55916,325.98452 106.2993,325.98452 106.2993,336.61445 85.03944,336.61445 85.03944,325.98452 63.77958,325.98452 63.77958,336.61445 31.88979,336.61445 31.88979,325.98452 10.62993,325.98452 10.62993,300.29552 0,300.29552 0,263.97659 10.62993,263.97659 10.62993,242.71673 0,242.71673 0,221.45687 10.62993,221.45687 10.62993,200.19701 0,200.19701 0,178.93716 10.62993,178.93716 10.62993,157.6773 0,157.6773 0,136.41744 10.62993,136.41744 10.62993,115.15758 0,115.15758 0,93.897715 10.62993,93.897715 10.62993,72.637855 0,72.637855 0,36.318928 10.62993,36.318928 10.62993,10.62993 31.88979,10.62993 31.88979,0 63.77958,0 "
       id="polygon4501" />
  </g>
  <!-- Bottom-->
  <g
     transform="translate(341.39792,1058.2095)"
     id="g4507"
     style="fill:none;stroke:#fd0000;stroke-opacity:1;stroke-width:0.90000071;stroke-miterlimit:4;stroke-dasharray:none">
    <polygon
       style="fill:none;stroke:#fd0000;stroke-width:0.90000071;stroke-opacity:1;stroke-miterlimit:4;stroke-dasharray:none"
       points="63.77958,10.62993 85.03944,10.62993 85.03944,0 106.2993,0 106.2993,10.62993 127.55916,10.62993 127.55916,0 148.81902,0 148.81902,10.62993 170.07888,10.62993 170.07888,0 191.33874,0 191.33874,10.62993 212.5986,10.62993 212.5986,0 233.85846,0 233.85846,10.62993 255.11832,10.62993 255.11832,0 287.00811,0 287.00811,10.62993 308.26797,10.62993 308.26797,36.318928 318.8979,36.318928 318.8979,72.637855 308.26797,72.637855 308.26797,93.897715 318.8979,93.897715 318.8979,115.15758 308.26797,115.15758 308.26797,136.41744 318.8979,136.41744 318.8979,157.6773 308.26797,157.6773 308.26797,178.93716 318.8979,178.93716 318.8979,200.19701 308.26797,200.19701 308.26797,221.45687 318.8979,221.45687 318.8979,242.71673 308.26797,242.71673 308.26797,263.97659 318.8979,263.97659 318.8979,300.29552 308.26797,300.29552 308.26797,325.98452 287.00811,325.98452 287.00811,336.61445 255.11832,336.61445 255.11832,325.98452 233.85846,325.98452 233.85846,336.61445 212.5986,336.61445 212.5986,325.98452 191.33874,325.98452 191.33874,336.61445 170.07888,336.61445 170.07888,325.98452 148.81902,325.98452 148.81902,336.61445 127.55916,336.61445 127.55916,325.98452 106.2993,325.98452 106.2993,336.61445 85.03944,336.61445 85.03944,325.98452 63.77958,325.98452 63.77958,336.61445 31.88979,336.61445 31.88979,325.98452 10.62993,325.98452 10.62993,300.29552 0,300.29552 0,263.97659 10.62993,263.97659 10.62993,242.71673 0,242.71673 0,221.45687 10.62993,221.45687 10.62993,200.19701 0,200.19701 0,178.93716 10.62993,178.93716 10.62993,157.6773 0,157.6773 0,136.41744 10.62993,136.41744 10.62993,115.15758 0,115.15758 0,93.897715 10.62993,93.897715 10.62993,72.637855 0,72.637855 0,36.318928 10.62993,36.318928 10.62993,10.62993 31.88979,10.62993 31.88979,0 63.77958,0 "
       id="polygon4505" />
  </g>
  <circle
     style="opacity:1;fill:none;fill-opacity:1;stroke:#fd0000;stroke-width:0.90000071;stroke-linejoin:round;stroke-miterlimit:4;stroke-dasharray:none;stroke-dashoffset:0;stroke-opacity:1"
     id="path4517"
     cx="181.94897"
     cy="1307.1418"
     r="49.606342" />
  <rect
     style="opacity:1;fill:none;fill-opacity:1;stroke:#fd0000;stroke-width:0.90000071;stroke-linejoin:round;stroke-miterlimit:4;stroke-dasharray:none;stroke-dashoffset:0;stroke-opacity:1"
     id="rect4519"
     width="255.11832"
     height="159.44894"
     x="54.389809"
     y="1079.2924" />
  <rect
     style="opacity:1;fill:none;fill-opacity:1;stroke:#fd0000;stroke-width:0.90000071;stroke-linejoin:round;stroke-miterlimit:4;stroke-dasharray:none;stroke-dashoffset:0;stroke-opacity:1"
     id="rect4519-7"
     width="53.149651"
     height="35.433102"
     x="146.68393"
     y="977.73035" />
</svg>
